<?xml version="1.0" standalone="no"?>
<!DOCTYPE svg PUBLIC "-//W3C//DTD SVG 20010904//EN"
 "http://www.w3.org/TR/2001/REC-SVG-20010904/DTD/svg10.dtd">
<svg version="1.0" xmlns="http://www.w3.org/2000/svg"
 width="512.000000pt" height="512.000000pt" viewBox="0 0 512.000000 512.000000"
 preserveAspectRatio="xMidYMid meet">

<g transform="translate(0.000000,512.000000) scale(0.100000,-0.100000)"
fill="#000000" stroke="none">
<path d="M1584 3966 c-94 -35 -153 -73 -229 -150 -89 -89 -133 -173 -175 -331
-17 -66 -60 -219 -95 -340 -104 -360 -241 -851 -275 -985 -18 -69 -43 -161
-57 -205 -76 -245 -163 -592 -163 -649 0 -110 67 -222 158 -264 89 -40 224
-44 1497 -39 1051 4 1177 6 1234 21 131 34 261 124 340 236 54 77 99 199 146
401 15 63 48 184 72 269 25 85 62 214 83 285 21 72 69 236 108 365 62 208 111
378 253 880 32 113 38 151 39 231 0 87 -3 102 -28 150 -31 60 -101 120 -162
138 -27 8 -405 11 -1361 10 l-1324 0 -61 -23z m2151 -219 c72 -29 207 -88 301
-130 94 -42 190 -84 215 -93 52 -20 71 -33 64 -44 -3 -5 -137 -102 -298 -216
-342 -244 -532 -379 -641 -457 -43 -31 -82 -55 -86 -52 -5 3 -6 57 -3 120 l6
115 -434 0 c-239 0 -518 3 -620 7 l-186 6 -13 -54 c-54 -231 -142 -402 -283
-550 -115 -121 -236 -204 -466 -319 -126 -63 -171 -80 -171 -65 0 3 17 67 39
142 21 76 98 376 171 667 72 292 138 542 145 557 49 94 185 192 286 205 27 4
444 7 926 8 l878 1 3 95 c3 106 7 124 25 117 6 -3 71 -30 142 -60z m295 -769
c0 -6 -27 -108 -59 -227 -33 -119 -87 -324 -121 -456 -194 -752 -181 -708
-233 -784 -47 -68 -84 -99 -167 -140 l-75 -36 -893 4 -892 4 0 -122 c0 -66 -2
-121 -5 -121 -3 0 -63 28 -133 61 -70 34 -152 72 -182 86 -294 132 -430 198
-430 207 0 6 22 25 48 43 69 46 268 194 523 389 262 199 444 334 453 334 3 0
6 -54 6 -119 0 -66 3 -122 8 -124 14 -9 958 -20 1083 -12 l127 7 5 42 c16 114
95 304 178 429 64 94 219 242 339 322 91 60 391 224 413 225 4 0 7 -5 7 -12z"/>
</g>
</svg>
